<?xml version="1.0" encoding="utf-8"?>
<!-- Generator: Adobe Illustrator 24.1.0, SVG Export Plug-In . SVG Version: 6.00 Build 0)  -->
<svg version="1.1" id="Layer_1" xmlns="http://www.w3.org/2000/svg" xmlns:xlink="http://www.w3.org/1999/xlink" x="0px" y="0px"
	 viewBox="0 0 40 40" style="enable-background:new 0 0 40 40;" xml:space="preserve">
<g>
	<g>
		<path d="M22.1,29.9v-9.1c0-2.3-1.9-4.1-4.1-4.1v14.5c0,2.1,1.7,3.8,3.8,3.8c0.1,0,0.1,0,0.2,0c1,0.1,2-0.2,2.8-0.8
			C22.4,34,22.1,32.6,22.1,29.9L22.1,29.9z"/>
		<path d="M13.4,12.9c-2.1,0-3.8,1.7-3.8,3.8h16.9c2.1,0,3.8-1.7,3.8-3.8C30.3,12.9,13.4,12.9,13.4,12.9z"/>
		<g>
			<path d="M13.3,5.8h-2.7v2.1H13v0.7h-2.5v3.1H9.8V5.1h3.5V5.8z"/>
			<path d="M18.6,11.6h-3V11h1.1V5.8h-1.1V5.1h3v0.7h-1.1V11h1.1V11.6z"/>
			<path d="M24.7,11.6h-3.6V5.1h0.8V11h2.8V11.6z"/>
			<path d="M30.3,11.6h-3.4V5.1h3.4v0.7h-2.6v2h2.5v0.7h-2.5V11h2.7V11.6z"/>
		</g>
	</g>
</g>
</svg>
