<?xml version="1.0" encoding="utf-8"?>
<svg version="1.1" id="Layer_1" xmlns="http://www.w3.org/2000/svg" xmlns:xlink="http://www.w3.org/1999/xlink" x="0px" y="0px"
	 viewBox="0 0 21 30.3" style="enable-background:new 0 0 21 30.3;" xml:space="preserve">
<symbol  id="Tao" viewBox="-11.4 -15.7 22.7 31.4">
	<path d="M2.1-10.6v9.1c0,2.3-1.9,4.1-4.1,4.1v-14.5c0-2.1,1.7-3.8,3.8-3.8c0.1,0,0.1,0,0.2,0c1-0.1,2,0.2,2.8,0.8
		C2.4-14.6,2.1-13.2,2.1-10.6L2.1-10.6z"/>
	<path d="M-6.6,6.4c-2.1,0-3.8-1.7-3.8-3.8H6.5c2.1,0,3.8,1.7,3.8,3.8C10.3,6.4-6.6,6.4-6.6,6.4z"/>
	<text transform="matrix(0.9988 0 0 -1 -11.3706 7.7124)" style="font-family:'AndaleMono'; font-size:9.4851px;">FILE</text>
</symbol>
<use xlink:href="#Tao"  width="22.7" height="31.4" x="-11.4" y="-15.7" transform="matrix(1 0 0 -1 10.3975 14.4916)" style="overflow:visible;"/>
</svg>
